<mxfile host="app.diagrams.net" agent="Mozilla/5.0 (Windows NT 10.0; Win64; x64) AppleWebKit/537.36 (KHTML, like Gecko) Chrome/131.0.0.0 Safari/537.36 Edg/131.0.0.0" version="26.0.6">
  <diagram name="Page-1" id="BFuxb5KCS-LEvVBP8Yrx">
    <mxGraphModel dx="2253" dy="755" grid="1" gridSize="10" guides="1" tooltips="1" connect="1" arrows="1" fold="1" page="1" pageScale="1" pageWidth="827" pageHeight="1169" math="0" shadow="0">
      <root>
        <mxCell id="0" />
        <mxCell id="1" parent="0" />
        <mxCell id="GPDv3OVLn7ujLdmAYbGH-8" value="" style="rounded=0;whiteSpace=wrap;html=1;fillColor=#ffe6cc;strokeColor=#d79b00;" vertex="1" parent="1">
          <mxGeometry x="-150" y="545" width="330" height="415" as="geometry" />
        </mxCell>
        <mxCell id="GPDv3OVLn7ujLdmAYbGH-5" value="" style="rounded=1;whiteSpace=wrap;html=1;dashed=1;strokeWidth=2;" vertex="1" parent="1">
          <mxGeometry x="100" y="260" width="430" height="180" as="geometry" />
        </mxCell>
        <mxCell id="GPDv3OVLn7ujLdmAYbGH-6" value="" style="rounded=0;whiteSpace=wrap;html=1;fillColor=#f5f5f5;fontColor=#333333;strokeColor=#666666;" vertex="1" parent="1">
          <mxGeometry x="324" y="540" width="206" height="210" as="geometry" />
        </mxCell>
        <mxCell id="GPDv3OVLn7ujLdmAYbGH-1" value="ld.wu(AT, address,0)" style="rounded=0;whiteSpace=wrap;html=1;" vertex="1" parent="1">
          <mxGeometry x="324" y="590" width="206" height="20" as="geometry" />
        </mxCell>
        <mxCell id="GPDv3OVLn7ujLdmAYbGH-2" value="" style="rounded=0;whiteSpace=wrap;html=1;fillColor=#d5e8d4;strokeColor=#82b366;" vertex="1" parent="1">
          <mxGeometry x="740" y="430" width="290" height="220" as="geometry" />
        </mxCell>
        <mxCell id="GPDv3OVLn7ujLdmAYbGH-4" value="&lt;font style=&quot;font-size: 16px;&quot;&gt;&lt;b&gt;libjvm.so&lt;/b&gt;&lt;/font&gt;" style="text;html=1;align=center;verticalAlign=middle;resizable=0;points=[];autosize=1;strokeColor=none;fillColor=none;" vertex="1" parent="1">
          <mxGeometry x="740" y="400" width="90" height="30" as="geometry" />
        </mxCell>
        <mxCell id="GPDv3OVLn7ujLdmAYbGH-7" value="&lt;b&gt;NMethod&lt;/b&gt;" style="text;html=1;align=center;verticalAlign=middle;resizable=0;points=[];autosize=1;strokeColor=none;fillColor=none;" vertex="1" parent="1">
          <mxGeometry x="-150" y="515" width="70" height="30" as="geometry" />
        </mxCell>
        <mxCell id="GPDv3OVLn7ujLdmAYbGH-9" value="&lt;b&gt;&lt;font style=&quot;font-size: 14px;&quot;&gt;main code&lt;/font&gt;&lt;/b&gt;" style="text;html=1;align=center;verticalAlign=middle;resizable=0;points=[];autosize=1;strokeColor=none;fillColor=none;" vertex="1" parent="1">
          <mxGeometry x="315" y="510" width="90" height="30" as="geometry" />
        </mxCell>
        <mxCell id="GPDv3OVLn7ujLdmAYbGH-10" value="st.d(rd, thread, DeoptionOffset)" style="rounded=0;whiteSpace=wrap;html=1;" vertex="1" parent="1">
          <mxGeometry x="324" y="670" width="206" height="20" as="geometry" />
        </mxCell>
        <mxCell id="GPDv3OVLn7ujLdmAYbGH-11" value="mov(rd, deoptReasonAndAction)" style="rounded=0;whiteSpace=wrap;html=1;" vertex="1" parent="1">
          <mxGeometry x="324" y="650" width="206" height="20" as="geometry" />
        </mxCell>
        <mxCell id="GPDv3OVLn7ujLdmAYbGH-12" value="jmp(optStubAddress)" style="rounded=0;whiteSpace=wrap;html=1;" vertex="1" parent="1">
          <mxGeometry x="324" y="690" width="206" height="20" as="geometry" />
        </mxCell>
        <mxCell id="GPDv3OVLn7ujLdmAYbGH-13" value="&lt;b&gt;&lt;font style=&quot;font-size: 18px;&quot;&gt;...&lt;/font&gt;&lt;/b&gt;" style="text;html=1;align=center;verticalAlign=middle;whiteSpace=wrap;rounded=0;" vertex="1" parent="1">
          <mxGeometry x="397" y="550" width="60" height="30" as="geometry" />
        </mxCell>
        <mxCell id="GPDv3OVLn7ujLdmAYbGH-14" value="&lt;b&gt;&lt;font style=&quot;font-size: 18px;&quot;&gt;...&lt;/font&gt;&lt;/b&gt;" style="text;html=1;align=center;verticalAlign=middle;whiteSpace=wrap;rounded=0;" vertex="1" parent="1">
          <mxGeometry x="397" y="610" width="60" height="30" as="geometry" />
        </mxCell>
        <mxCell id="GPDv3OVLn7ujLdmAYbGH-15" value="&lt;b&gt;&lt;font style=&quot;font-size: 18px;&quot;&gt;...&lt;/font&gt;&lt;/b&gt;" style="text;html=1;align=center;verticalAlign=middle;whiteSpace=wrap;rounded=0;" vertex="1" parent="1">
          <mxGeometry x="397" y="710" width="60" height="30" as="geometry" />
        </mxCell>
        <mxCell id="GPDv3OVLn7ujLdmAYbGH-48" value="&lt;b&gt;address 1&lt;/b&gt;" style="text;html=1;align=center;verticalAlign=middle;resizable=0;points=[];autosize=1;strokeColor=none;fillColor=none;" vertex="1" parent="1">
          <mxGeometry x="250" y="585" width="80" height="30" as="geometry" />
        </mxCell>
        <mxCell id="GPDv3OVLn7ujLdmAYbGH-49" value="&lt;b&gt;address 2&lt;/b&gt;" style="text;html=1;align=center;verticalAlign=middle;resizable=0;points=[];autosize=1;strokeColor=none;fillColor=none;" vertex="1" parent="1">
          <mxGeometry x="250" y="645" width="80" height="30" as="geometry" />
        </mxCell>
        <mxCell id="GPDv3OVLn7ujLdmAYbGH-60" value="" style="rounded=0;whiteSpace=wrap;html=1;fillColor=#f5f5f5;fontColor=#333333;strokeColor=#666666;" vertex="1" parent="1">
          <mxGeometry x="324" y="800" width="206" height="90" as="geometry" />
        </mxCell>
        <mxCell id="GPDv3OVLn7ujLdmAYbGH-61" value="address 1" style="rounded=0;whiteSpace=wrap;html=1;" vertex="1" parent="1">
          <mxGeometry x="324" y="820" width="106" height="20" as="geometry" />
        </mxCell>
        <mxCell id="GPDv3OVLn7ujLdmAYbGH-62" value="&lt;span style=&quot;color: rgb(51, 51, 51); font-size: 16px; font-weight: 700;&quot;&gt;ImplicitExecptionTable&lt;/span&gt;" style="text;html=1;align=center;verticalAlign=middle;resizable=0;points=[];autosize=1;strokeColor=none;fillColor=none;" vertex="1" parent="1">
          <mxGeometry x="315" y="770" width="200" height="30" as="geometry" />
        </mxCell>
        <mxCell id="GPDv3OVLn7ujLdmAYbGH-67" value="&lt;b&gt;&lt;font style=&quot;font-size: 18px;&quot;&gt;...&lt;/font&gt;&lt;/b&gt;" style="text;html=1;align=center;verticalAlign=middle;whiteSpace=wrap;rounded=0;" vertex="1" parent="1">
          <mxGeometry x="397" y="850" width="60" height="30" as="geometry" />
        </mxCell>
        <mxCell id="GPDv3OVLn7ujLdmAYbGH-69" value="address 2" style="rounded=0;whiteSpace=wrap;html=1;" vertex="1" parent="1">
          <mxGeometry x="430" y="820" width="100" height="20" as="geometry" />
        </mxCell>
        <mxCell id="GPDv3OVLn7ujLdmAYbGH-70" value="&lt;font style=&quot;font-size: 14px;&quot;&gt;&lt;b&gt;Code Cache&lt;/b&gt;&lt;/font&gt;" style="text;html=1;align=center;verticalAlign=middle;resizable=0;points=[];autosize=1;strokeColor=none;fillColor=none;" vertex="1" parent="1">
          <mxGeometry x="100" y="220" width="100" height="30" as="geometry" />
        </mxCell>
        <mxCell id="GPDv3OVLn7ujLdmAYbGH-71" value="" style="rounded=0;whiteSpace=wrap;html=1;" vertex="1" parent="1">
          <mxGeometry x="640" y="900" width="120" height="60" as="geometry" />
        </mxCell>
        <mxCell id="GPDv3OVLn7ujLdmAYbGH-72" value="&lt;b&gt;&lt;font style=&quot;font-size: 14px;&quot;&gt;opt stub code&lt;/font&gt;&lt;/b&gt;" style="text;html=1;align=center;verticalAlign=middle;resizable=0;points=[];autosize=1;strokeColor=none;fillColor=none;" vertex="1" parent="1">
          <mxGeometry x="630" y="870" width="120" height="30" as="geometry" />
        </mxCell>
      </root>
    </mxGraphModel>
  </diagram>
</mxfile>
